<svg xmlns="http://www.w3.org/2000/svg" width="997.817" height="748.363" fill="none" overflow="visible" preserveAspectRatio="none" style="display:block" viewBox="0 0 997.817 748.363"><g fill="#ba1422"><path d="m128.468 81.076 79.826-4.99 101.029 3.743 97.287-3.742 108.513 4.989 92.298-3.742 106.018 3.742 93.545-3.742 88.556 4.99 11.226 6.236-7.484 9.978-88.556-3.742-96.04 3.742-107.265-4.99-92.298 3.742-109.76-4.989-93.546 4.99-102.276-4.99-77.331 4.99-8.731-6.237z"/><path d="m158.402 67.352 113.502 2.494 109.759-3.742 115.997 4.99 118.49-2.495 119.739 4.989 133.458-3.742 48.643 7.484-3.742 6.236-46.149-4.989-132.21 3.742-119.739-4.99-118.49 3.743-115.997-6.237-109.759 3.742-112.255-2.494z"/><path d="m903.025 77.332 13.72 4.99-3.742 79.824 4.989 98.535-4.989 98.534 6.236 96.04-4.989 103.524 3.742 49.891-13.72 6.236-4.989-54.88 4.989-103.523-6.236-97.288 4.989-97.287-4.989-99.782zM922.979 118.491l8.731 3.742-4.989 106.018 4.989 108.512-4.989 77.331-6.236-1.247 2.494-76.084-3.742-107.265zm-1.247 318.054 7.484-1.247-1.248 84.814 6.237 68.6-7.484 7.484-6.236-74.836zM78.577 139.698l16.214-7.484 3.742 78.578-4.99 101.029 6.237 97.287-4.989 101.029 6.236 87.309-3.741 68.6-13.72 8.731-2.495-77.331-3.742-86.061 6.237-101.029-4.99-97.287 4.99-101.029zM66.104 165.884l7.483-4.989 2.495 114.749-4.99 92.298 3.743 108.513-6.237 12.472-3.742-119.738 3.742-94.792zm3.742 347.989 7.483 3.742-2.494 78.578 7.483 92.298-8.73-3.742-6.237-86.062z"/><path d="m79.827 653.57 84.814-4.989 102.276 4.989 101.029-4.989 103.524 7.484 101.029-4.989 101.029 6.236 96.04-3.742 87.309 6.237 8.731 8.731-7.484 7.483-91.051-6.236-93.545 3.742-101.029-6.237-101.029 4.989-104.771-7.483-99.782 4.989-102.276-4.989-83.567 4.989-9.978-6.236zM111.009 676.024l98.534-1.247 102.277 7.484 106.018-4.989 87.309 6.236 4.989 6.236-92.298-3.741-106.018 4.989-103.524-7.484-98.534 2.495zm426.567 6.237 93.545-3.742 97.287 8.731 103.524-3.742 11.225 6.236-13.72 4.99-101.029 1.247-97.287-8.731-93.545 3.742z"/></g></svg>